<?xml version="1.0" encoding="UTF-8"?>
<svg width="113px" height="16px" viewBox="0 0 113 16" version="1.1" xmlns="http://www.w3.org/2000/svg" xmlns:xlink="http://www.w3.org/1999/xlink">
    <!-- Generator: Sketch 63.1 (92452) - https://sketch.com -->
    <title>DEVELOPERS LOGO</title>
    <desc>Created with Sketch.</desc>
    <g id="控件" stroke="none" stroke-width="1" fill="none" fill-rule="evenodd">
        <g id="DEVELOPERS-LOGO" transform="translate(-1.000000, 0.000000)">
            <g>
                <rect id="114*16" fill="#FF0000" opacity="0" x="0" y="0" width="114" height="16"></rect>
                <path d="M5.03924,13.2407133 C6.21010667,13.2407133 7.19734,13.00738 8.00117333,12.5407133 C8.80710667,12.0740467 9.40840667,11.4251467 9.80717333,10.59378 C10.2068733,9.76124667 10.4073067,8.79734667 10.4073067,7.69858 C10.4073067,6.08344667 9.96630667,4.86824667 9.08500667,4.05484667 C8.20370667,3.24028 6.88864,2.83428 5.14004,2.83428 L3.05497333,2.83428 L3.05497333,13.2407133 L5.03924,13.2407133 Z M1.33600667,1.41748 L5.32227333,1.41748 C6.76777333,1.41748 8.00327333,1.65174667 9.03087333,2.12168 C10.05754,2.59021333 10.84434,3.28811333 11.3894067,4.21491333 C11.93564,5.14194667 12.2081733,6.27968 12.2081733,7.62554667 C12.2081733,8.99778 11.9260733,10.2141467 11.3628067,11.2746467 C10.7986067,12.3349133 9.98754,13.1644133 8.93007333,13.76128 C7.87284,14.3595467 6.62357333,14.6575133 5.18554,14.6575133 L1.33600667,14.6575133 L1.33600667,1.41748 Z" id="Fill-1" stroke="#000000" stroke-width="0.5" fill="#000000"></path>
                <polygon id="Fill-3" stroke="#000000" stroke-width="0.5" fill="#000000" points="15.2514467 1.41699 22.7958133 1.41699 22.5676133 2.89002333 16.97158 2.89002333 16.97158 7.10449 22.2654467 7.10449 22.2654467 8.52222333 16.97158 8.52222333 16.97158 13.16719 22.85088 13.16719 22.6588467 14.6570233 15.2514467 14.6570233"></polygon>
                <path d="M24.0201367,1.41699 L25.91317,1.41699 L29.56227,11.21909 C29.67147,11.5308233 29.82407,12.04509 30.0182033,12.7651567 C30.1953033,12.1680567 30.3628367,11.65169 30.52197,11.21909 L34.1519367,1.41699 L35.9166367,1.41699 L30.8136367,14.6570233 L29.11357,14.6570233 L24.0201367,1.41699 Z" id="Fill-5" stroke="#000000" stroke-width="0.5" fill="#000000"></path>
                <polygon id="Fill-7" stroke="#000000" stroke-width="0.5" fill="#000000" points="38.05495 1.41699 45.5993167 1.41699 45.3701833 2.89002333 39.7750833 2.89002333 39.7750833 7.10449 45.06895 7.10449 45.06895 8.52222333 39.7750833 8.52222333 39.7750833 13.16719 45.6543833 13.16719 45.46235 14.6570233 38.05495 14.6570233"></polygon>
                <polygon id="Fill-9" stroke="#000000" stroke-width="0.5" fill="#000000" points="48.6431733 1.41699 50.36214 1.41699 50.36214 13.1214567 56.1047067 13.1214567 55.9129067 14.6570233 48.6431733 14.6570233"></polygon>
                <path d="M65.8749333,12.71982 C66.5791333,12.25642 67.1062333,11.6189533 67.4562333,10.8076533 C67.8071667,9.99752 67.9821667,9.07165333 67.9821667,8.02818667 C67.9821667,7.01015333 67.8284,6.09922 67.5208667,5.29445333 C67.2133333,4.48945333 66.7170333,3.84988667 66.0340667,3.37388667 C65.3522667,2.89765333 64.474,2.66128667 63.4009,2.66128667 C62.3828667,2.66128667 61.5195333,2.90302 60.8090333,3.38765333 C60.0985333,3.87228667 59.5672333,4.52025333 59.2130333,5.33038667 C58.86,6.14168667 58.6829,7.03465333 58.6829,8.01022 C58.6829,9.03362 58.8504333,9.95295333 59.1855,10.7663533 C59.5205667,11.58092 60.0339,12.22562 60.7264333,12.7006867 C61.4189667,13.17692 62.2734333,13.4144533 63.2905333,13.4144533 C64.3085667,13.4144533 65.1707333,13.18322 65.8749333,12.71982 M59.7889,14.0094533 C58.8439,13.4536533 58.1217333,12.6752533 57.6221667,11.6730867 C57.1216667,10.66882 56.8724667,9.50448667 56.8724667,8.17472 C56.8724667,6.77798667 57.1387,5.55718667 57.6721,4.51278667 C58.2066667,3.46605333 58.9734,2.65895333 59.9765,2.08962 C60.9798333,1.51795333 62.1633,1.23375333 63.5292333,1.23375333 C64.8347333,1.23375333 65.9575333,1.51048667 66.9037,2.06092 C67.8475333,2.61345333 68.5676,3.38858667 69.0615667,4.38982 C69.5557667,5.38872 69.8019333,6.54675333 69.8019333,7.86392 C69.8019333,9.28492 69.5315,10.5192533 68.9927333,11.5671533 C68.4539667,12.61482 67.6821,13.4228533 66.6799333,13.99032 C65.6766,14.55662 64.5017667,14.84082 63.1549667,14.84082 C61.8557667,14.84082 60.7336667,14.56292 59.7889,14.0094533" id="Fill-11" stroke="#000000" stroke-width="0.5" fill="#000000"></path>
                <path d="M78.5478967,7.47539667 C79.11723,6.96649667 79.4025967,6.25786333 79.4025967,5.34903 C79.4025967,4.45186333 79.1237633,3.80296333 78.56703,3.40093 C78.0081967,2.99819667 77.1989967,2.79753 76.1384967,2.79753 L74.5646633,2.79753 L74.5646633,8.08299667 C75.13843,8.18706333 75.6379967,8.23886333 76.0642967,8.23886333 C77.15023,8.23886333 77.9773967,7.98336333 78.5478967,7.47539667 L78.5478967,7.47539667 Z M72.8456967,1.41689667 L76.1746633,1.41689667 C77.7832633,1.41689667 79.0124633,1.74776333 79.8596967,2.40949667 C80.70693,3.07123 81.13113,4.02883 81.13113,5.28556333 C81.13113,6.15729667 80.9318633,6.92076333 80.5321633,7.57619667 C80.13223,8.23139667 79.5733967,8.73633 78.8544967,9.09379667 C78.13443,9.45009667 77.3114633,9.62813 76.3855967,9.62813 C75.7821967,9.62813 75.1743633,9.55813 74.5646633,9.41813 L74.5646633,14.65693 L72.8456967,14.65693 L72.8456967,1.41689667 Z" id="Fill-13" stroke="#000000" stroke-width="0.5" fill="#000000"></path>
                <polygon id="Fill-15" stroke="#000000" stroke-width="0.5" fill="#000000" points="83.82746 1.41699 91.37066 1.41699 91.1426933 2.89002333 85.5464267 2.89002333 85.5464267 7.10449 90.8405267 7.10449 90.8405267 8.52222333 85.5464267 8.52222333 85.5464267 13.16719 91.4257267 13.16719 91.2339267 14.6570233 83.82746 14.6570233"></polygon>
                <path d="M97.6893267,7.87313667 C98.3172267,7.87313667 98.87186,7.75320333 99.3532267,7.51147 C99.83366,7.27067 100.207927,6.92930333 100.473227,6.48713667 C100.738293,6.04473667 100.870827,5.53793667 100.870827,4.96533667 C100.870827,4.20910333 100.630027,3.65867 100.14866,3.31403667 C99.6672933,2.97057 98.9661267,2.79767 98.0456267,2.79767 L96.1346267,2.79767 L96.1346267,7.87313667 L97.6893267,7.87313667 Z M94.4144933,1.41680333 L98.24606,1.41680333 C99.6490933,1.41680333 100.730827,1.71057 101.49336,2.29927 C102.25566,2.88773667 102.635527,3.73730333 102.635527,4.84657 C102.635527,5.55263667 102.488993,6.17423667 102.19756,6.71090333 C101.904727,7.24733667 101.540027,7.68647 101.10416,8.02783667 C100.669227,8.37037 100.213293,8.63240333 99.73706,8.81487 L103.879427,14.65707 L101.831693,14.65707 L98.1093267,9.25377 L96.1346267,9.25377 L96.1346267,14.65707 L94.4144933,14.65707 L94.4144933,1.41680333 Z" id="Fill-17" stroke="#000000" stroke-width="0.5" fill="#000000"></path>
                <path d="M107.079337,14.59428 C106.395437,14.4300133 105.768703,14.20718 105.19587,13.9262467 L105.78037,12.5094467 C106.310503,12.7831467 106.883103,13.00248 107.499337,13.16698 C108.11557,13.3324133 108.69237,13.4150133 109.22787,13.4150133 C109.807003,13.4150133 110.291637,13.3184133 110.68177,13.1254467 C111.072137,12.93458 111.362637,12.67278 111.555603,12.3449467 C111.74647,12.0152467 111.84307,11.64098 111.84307,11.21888 C111.84307,10.7627133 111.723137,10.37678 111.481403,10.0629467 C111.24177,9.74888 110.93307,9.49011333 110.558803,9.28548 C110.18337,9.08178 109.655337,8.83258 108.97237,8.53998 C108.221503,8.21658 107.60527,7.90484667 107.119703,7.60244667 C106.63507,7.30144667 106.234203,6.91644667 105.917103,6.44558 C105.600003,5.97681333 105.442037,5.40421333 105.442037,4.72661333 C105.442037,4.03198 105.612603,3.42111333 105.953037,2.89401333 C106.29557,2.36691333 106.782537,1.95764667 107.412303,1.66924667 C108.04347,1.37874667 108.785703,1.23338 109.639237,1.23338 C110.273437,1.23338 110.902503,1.30851333 111.527137,1.45808 C112.152703,1.60764667 112.678637,1.79524667 113.106103,2.02111333 L112.75727,3.42858 C111.648937,2.92271333 110.615037,2.67024667 109.65837,2.67024667 C108.90867,2.67024667 108.30107,2.82821333 107.838603,3.14531333 C107.37427,3.46241333 107.143037,3.93748 107.143037,4.57168 C107.143037,4.99168 107.256437,5.35008 107.48137,5.64594667 C107.707237,5.94181333 108.02107,6.20384667 108.423103,6.43274667 C108.824903,6.66188 109.39657,6.93348 110.13367,7.25058 C110.89597,7.58028 111.511037,7.89318 111.979803,8.18788 C112.449737,8.48374667 112.82937,8.86338 113.118937,9.32678 C113.40827,9.79041333 113.55247,10.3660467 113.55247,11.05438 C113.55247,11.8297467 113.37747,12.5008133 113.02747,13.0715467 C112.676537,13.6420467 112.169737,14.0788467 111.504737,14.3833467 C110.840903,14.68878 110.04757,14.8402133 109.128237,14.8402133 C108.444103,14.8402133 107.762303,14.75878 107.079337,14.59428" id="Fill-19" stroke="#000000" stroke-width="0.5" fill="#000000"></path>
            </g>
        </g>
    </g>
</svg>