<?xml version="1.0" encoding="UTF-8"?>
<svg width="96px" height="21px" viewBox="0 0 96 21" version="1.1" xmlns="http://www.w3.org/2000/svg" xmlns:xlink="http://www.w3.org/1999/xlink">
    <!-- Generator: Sketch 63.1 (92452) - https://sketch.com -->
    <title>HW LOGO</title>
    <desc>Created with Sketch.</desc>
    <g id="页面-1" stroke="none" stroke-width="1" fill="none" fill-rule="evenodd">
        <g id="1.1.1主导航响应规范_EN" transform="translate(-56.000000, -291.000000)">
            <g id="navibar_1920" transform="translate(0.000000, 284.000000)">
                <g id="head-bar">
                    <g id="HW-LOGO" transform="translate(56.000000, 7.000000)">
                        <rect id="96*21" fill="#FF0000" opacity="0" x="0" y="0" width="96" height="21"></rect>
                        <polygon id="Fill-1" fill="#231815" points="39.4995712 10.803553 34.5885829 10.803553 34.5885829 6.36692506 32.4134367 6.36692506 32.4134367 17.3643411 34.5885829 17.3643411 34.5885829 12.8981675 39.4995712 12.8981675 39.4995712 17.3643411 41.6744186 17.3643411 41.6744186 6.36692506 39.4995712 6.36692506"></polygon>
                        <path d="M51.6490743,12.5686289 C51.6490743,14.3305274 50.7815218,15.2711769 49.2063048,15.2711769 C47.6216827,15.2711769 46.7489783,14.3039537 46.7489783,12.4938601 L46.7489783,6.37338731 L44.5684755,6.37338731 L44.5684755,12.5686289 C44.5684755,15.6163938 46.2482277,17.3643411 49.1770709,17.3643411 C52.1338302,17.3643411 53.8294574,15.5837806 53.8294574,12.4789426 L53.8294574,6.36692506 L51.6490743,6.36692506 L51.6490743,12.5686289 Z" id="Fill-2" fill="#231815"></path>
                        <polygon id="Fill-4" fill="#231815" points="76.4995029 13.9294145 74.115195 6.36692506 72.3765238 6.36692506 69.9926841 13.9294145 67.6733437 6.37329921 65.4056848 6.37329921 69.0648192 17.3643411 70.8293604 17.3643411 73.2170044 10.1442779 75.6041217 17.3643411 77.3832952 17.3643411 81.0335917 6.37329921 78.8242864 6.37329921"></polygon>
                        <polygon id="Fill-6" fill="#231815" points="84.764497 12.6324158 88.4420132 12.6324158 88.4420132 10.6266583 84.764497 10.6266583 84.764497 8.37268247 90.1025081 8.37268247 90.1025081 6.36692506 82.7700258 6.36692506 82.7700258 17.3643411 90.2945736 17.3643411 90.2945736 15.3587678 84.764497 15.3587678"></polygon>
                        <polygon id="Fill-8" fill="#231815" points="93.7674419 17.3643411 95.503876 17.3643411 95.503876 6.36692506 93.7674419 6.36692506"></polygon>
                        <path d="M58.8698294,13.0899943 L60.4585639,9.15145446 L62.0576668,13.0899943 L58.8698294,13.0899943 Z M59.5652049,6.36692506 L54.9870801,17.3643411 L57.1391816,17.3643411 L58.0857147,15.0739232 L62.8414919,15.0739232 L63.7745866,17.3643411 L65.9844961,17.3643411 L61.4223004,6.36692506 L59.5652049,6.36692506 Z" id="Fill-10" fill="#231815"></path>
                        <path d="M4.25352618,3.67061866 C4.25352618,3.67061866 1.846936,5.873306 2.0008472,8.25333008 C2.07153932,9.9669802 3.40639702,11.0345134 3.40639702,11.0345134 C5.54133422,13.0612691 10.6089356,15.6598465 11.8278159,16.2619366 C11.8776886,16.2865846 11.9262673,16.271831 11.9526151,16.2496419 C11.9911959,16.2172658 11.9850206,16.1551482 11.9679651,16.1181469 C8.71571606,9.05119902 4.25352618,3.67061866 4.25352618,3.67061866 M10.5113664,0.261584856 C8.24780718,0.809695292 7.68944532,2.88346369 7.68944532,2.88346369 C7.29599253,3.97224918 7.70326616,5.57940359 7.70326616,5.57940359 C8.45453163,8.89950556 12.1539877,14.3588307 12.9651238,15.525834 C12.9954709,15.5689241 13.0396976,15.5853756 13.0858062,15.573198 C13.1152711,15.5654699 13.1499702,15.5424612 13.1563219,15.478353 C14.3860824,3.24276232 11.8559869,0 11.8559869,0 C11.1632394,0.0972453998 10.5113664,0.261584856 10.5113664,0.261584856 M11.0679639,17.9370047 C8.93479105,18.0109487 2.51892279,18.2334832 2.51892279,18.2334832 C4.43619649,21.5125442 6.64353135,20.7635614 6.64353135,20.7635614 C7.83759294,20.428501 10.3152869,18.7039612 11.1322455,18.1206059 C11.1838825,18.0837218 11.1720024,18.0175645 11.1582992,17.9908088 C11.1408909,17.9566763 11.0974875,17.9359509 11.0679639,17.9370047 M11.2569271,17.1145464 C7.50471659,14.597641 0.246130084,10.7174266 0.246130084,10.7174266 C-0.402331874,12.6660231 0.435622595,14.3342412 0.435622595,14.3342412 C1.37532196,16.3792634 3.18408737,16.9518462 3.18408737,16.9518462 C3.99681146,17.2623758 4.6544481,17.2883703 4.6544481,17.2883703 C4.78254081,17.3120816 9.86872682,17.3059928 11.2121123,17.3040022 C11.2571623,17.303768 11.2909205,17.2720944 11.3007421,17.2366739 C11.3193855,17.1698141 11.2843923,17.1329884 11.2569271,17.1145464 M27.5368157,10.7174266 C27.5368157,10.7174266 20.2782291,14.597641 16.5260775,17.1145464 C16.4985534,17.1329884 16.4635602,17.1698141 16.4822037,17.2366739 C16.4920841,17.2720944 16.5257834,17.303768 16.5708335,17.3040022 C17.9142189,17.3059928 23.0004637,17.3120816 23.1284976,17.2883703 C23.1284976,17.2883703 23.7861343,17.2623758 24.5988584,16.9518462 C24.5988584,16.9518462 26.4076238,16.3792634 27.3473231,14.3342412 C27.3473231,14.3342412 28.1852776,12.6660231 27.5368157,10.7174266 M16.6246465,17.9908088 C16.6110021,18.0175645 16.5991221,18.0837218 16.6507003,18.1206059 C17.4676588,18.7039612 19.9453528,20.428501 21.1394144,20.7635614 C21.1394144,20.7635614 23.3467492,21.5125442 25.2640229,18.2334832 C25.2640229,18.2334832 18.8481547,18.0109487 16.7150407,17.9370047 C16.6854582,17.9359509 16.6420549,17.9566763 16.6246465,17.9908088 M20.0935004,2.88346369 C20.0935004,2.88346369 19.5351974,0.809695292 17.2715794,0.261584856 C17.2715794,0.261584856 16.6197063,0.0972453998 15.9270177,0 C15.9270177,0 13.3969221,3.24276232 14.6266238,15.478353 C14.6329755,15.5424612 14.6676747,15.5654699 14.6971395,15.573198 C14.7432482,15.5853756 14.7874749,15.5689241 14.8178219,15.525834 C15.628958,14.3588307 19.3284729,8.89950556 20.0796796,5.57940359 C20.0796796,5.57940359 20.4869532,3.97224918 20.0935004,2.88346369 M25.7820985,8.25333008 C25.9360685,5.873306 23.5294196,3.67061866 23.5294196,3.67061866 C23.5294196,3.67061866 19.0672297,9.05119902 15.8149806,16.1181469 C15.797984,16.1551482 15.7917499,16.2172658 15.8303306,16.2496419 C15.8566784,16.271831 15.9052572,16.2865846 15.9551298,16.2619366 C17.1740689,15.6598465 22.2416703,13.0612691 24.3765487,11.0345134 C24.3765487,11.0345134 25.7114064,9.9669802 25.7820985,8.25333008" id="Fill-11" fill="#C8102E"></path>
                    </g>
                </g>
            </g>
        </g>
    </g>
</svg>