<?xml version="1.0" encoding="UTF-8"?>
<svg width="58px" height="58px" viewBox="0 0 58 58" version="1.1" xmlns="http://www.w3.org/2000/svg" xmlns:xlink="http://www.w3.org/1999/xlink">
    <title>编组 2</title>
    <g id="页面-1" stroke="none" stroke-width="1" fill="none" fill-rule="evenodd">
        <g id="画板" transform="translate(-264.000000, -69.000000)">
            <g id="编组-2" transform="translate(265.000000, 70.000000)">
                <circle id="椭圆形" stroke="#FFFFFF" cx="28" cy="28" r="28"></circle>
                <g id="编组" transform="translate(13.000000, 13.000000)" fill="#FFFFFF" fill-rule="nonzero">
                    <path d="M1.270625,14.609375 C0.746792536,14.6104643 0.277843155,14.2848182 0.0958718674,13.7936074 C-0.0860994202,13.3023966 0.0575103342,12.7498252 0.455625,12.409375 L14.578125,0.309375 C15.045905,-0.0907346539 15.735345,-0.0907346539 16.203125,0.309375 L30.325625,12.411875 C30.7237397,12.7523252 30.8673494,13.3048966 30.6853781,13.7961074 C30.5034068,14.2873182 30.0344575,14.6129643 29.510625,14.611875 L25.390625,14.611875 L25.390625,27.111875 C25.390625,28.4925869 24.2713369,29.611875 22.890625,29.611875 L20.390625,29.611875 C19.0099131,29.611875 17.890625,28.4925869 17.890625,27.111875 L17.890625,19.611875 L12.890625,19.611875 L12.890625,27.111875 C12.890625,28.4925869 11.7713369,29.611875 10.390625,29.611875 L7.890625,29.611875 C6.50991313,29.611875 5.390625,28.4925869 5.390625,27.111875 L5.390625,14.609375 L1.270625,14.609375 Z" id="路径"></path>
                </g>
            </g>
        </g>
    </g>
</svg>