<?xml version="1.0" encoding="UTF-8"?>
<svg width="58px" height="58px" viewBox="0 0 58 58" version="1.1" xmlns="http://www.w3.org/2000/svg" xmlns:xlink="http://www.w3.org/1999/xlink">
    <title>编组 4</title>
    <g id="页面-1" stroke="none" stroke-width="1" fill="none" fill-rule="evenodd">
        <g id="画板" transform="translate(-432.000000, -69.000000)">
            <g id="编组-4" transform="translate(433.000000, 70.000000)">
                <circle id="椭圆形备份-2" stroke="#FFFFFF" cx="28" cy="28" r="28"></circle>
                <g id="编组" transform="translate(13.000000, 13.000000)" fill="#FFFFFF" fill-rule="nonzero">
                    <path d="M29.9906279,5.20149952 C29.8702648,2.29999821 27.4869298,0.0075356332 24.5829428,0 L5.41705717,0 C2.42529911,0 0,2.42529911 0,5.41705717 L0,7.01030927 L29.9906279,5.20149952 Z M0,25.0140581 C0.225552855,27.8347004 2.5874452,30.0045358 5.41705717,29.9906944 L24.5735708,29.9906944 C27.5616726,29.9906944 29.9854582,27.5710402 29.9906279,24.5829428 L29.9906279,23.1958763 L0,25.0140581 Z M16.6073102,14.6204311 C16.4386129,14.6954077 16.0824742,14.6204311 15.923149,14.6954077 C15.7582035,14.6750173 15.5913747,14.6750173 15.4264292,14.6954077 C15.3750478,15.2044772 15.3908028,15.7180922 15.4732896,16.2230553 L17.0759138,16.1480787 C17.2462523,16.0699399 17.4120848,15.9823303 17.5726336,15.8856607 C18.284911,15.5763824 18.9315839,15.2296158 19.5970009,14.8922212 C20.1959476,14.6702401 20.7706316,14.3876087 21.31209,14.0487348 C21.7928326,14.147145 22.2568501,14.3144438 22.6897845,14.5454545 C23.2708529,14.7703842 23.8238051,14.873477 24.4048735,15.1171509 C24.8292387,15.3184077 25.2641039,15.4967337 25.7075914,15.6513589 L27.3851921,15.5388941 L27.3851921,15.4920337 C27.4562365,14.9852959 27.4562365,14.471124 27.3851921,13.9643861 L26.2417994,14.0581068 C25.7860285,13.9035996 25.3386782,13.7252851 24.9015933,13.5238988 C24.427581,13.4169495 23.9681681,13.253323 23.5332708,13.0365511 L27.2820993,11.1621368 C27.3674713,10.2707054 27.3674713,9.3731559 27.2820993,8.48172445 C25.4076851,8.63167758 23.6269916,8.70665417 21.6588566,8.82849108 C20.965498,8.94648448 20.2595221,8.97169792 19.5595126,8.90346768 L17.769447,8.02249298 C17.2633552,8.86597939 16.6822868,9.6813496 16.1668229,10.5060918 C15.9687341,10.9489476 15.7100929,11.3621428 15.398313,11.7338332 C15.4826617,11.968135 15.7731959,11.9493908 16.0074976,12.0337395 C16.4460887,12.1526907 16.8703544,12.3192542 17.2727273,12.5304592 C17.5351453,12.4835989 17.5726336,12.1930647 17.6944705,11.9962512 C18.0037488,11.5089035 18.3786317,11.0028116 18.68791,10.5060918 C19.3896967,10.5408355 20.0931957,10.503148 20.787254,10.393627 L21.5463918,10.393627 C21.9212746,10.3373946 22.4367385,10.393627 22.8116214,10.2811621 C23.4770384,10.131209 24.3017807,10.3655108 24.9109653,10.1593252 L24.9109653,10.2061856 C24.9336039,10.2921935 24.9336039,10.3825957 24.9109653,10.4686036 C24.7797563,10.7216495 24.2830366,10.7966261 24.0299906,10.927835 L22.2024367,11.8650422 C21.9454222,11.9501099 21.6998916,12.0665796 21.4714152,12.2118088 C20.8866065,12.0831496 20.3221654,11.8750316 19.7938144,11.5932521 C19.4275934,11.5346952 19.0731757,11.4176108 18.7441424,11.2464855 C18.4442362,11.321462 17.9943768,12.3336457 17.7507029,12.5866917 C17.8069353,12.8303655 18.9878163,13.1771321 19.2783505,13.2708529 L19.2783505,13.3177132 C18.3880037,13.7394564 17.5351453,14.2549203 16.6354264,14.6204311 L16.6073102,14.6204311 Z M13.4020619,17.5257732 C13.6218578,17.5403433 13.8426132,17.5245751 14.0581068,17.4789128 C14.1265576,16.9657214 14.1265576,16.4457125 14.0581068,15.9325211 L11.2464855,16.0824742 L11.2464855,11.5276476 C11.3271375,10.8301901 11.3271375,10.1257611 11.2464855,9.42830364 L10.2155576,9.50328023 C10.0093721,9.50328023 9.70946578,9.44704781 9.56888473,9.50328023 C9.3509523,9.47767996 9.13077217,9.47767996 8.91283975,9.50328023 L8.91283975,14.0862231 C8.99349183,14.7836805 8.99349183,15.4881095 8.91283975,16.185567 L2.14620431,16.5698219 L2.14620431,18.0974695 C3.04232559,18.124717 3.9391263,18.0745464 4.82661668,17.9475164 C5.24835987,17.8631678 5.7638238,18.0506092 6.08247422,17.8725398 L6.85098407,17.8725398 C6.68534744,18.0293123 6.54329162,18.2092497 6.42924085,18.4067479 C6.12933457,18.8284911 5.79194001,19.2408622 5.49203373,19.6719775 C5.30459229,19.9250234 4.98594187,20.1593252 4.87347703,20.4779756 C4.49859419,20.5716963 2.99906279,20.4779756 2.73664479,20.6654171 C2.5716993,20.6450267 2.4048705,20.6450267 2.23992501,20.6654171 L2.23992501,22.1930647 C2.93046581,22.2108637 3.62108166,22.160637 4.30178068,22.0431115 C4.56419868,21.9868791 4.93908152,22.0431115 5.1452671,22.0431115 C5.53889408,21.9587629 6.24179944,22.1368322 6.52296158,21.968135 C6.80412372,21.7994377 7.31021558,21.0309278 7.51640112,20.7029053 C8.24742267,19.6907217 9.21274603,18.6972821 9.88753515,17.6476101 C10.6401501,17.65962 11.3924718,17.6094652 12.1368322,17.497657 C12.5210871,17.4039363 13.2239925,17.5820056 13.5051546,17.4133083 L13.4020619,17.5257732 Z" id="形状"></path>
                    <path d="M4.92033738,12.6710403 C5.11876278,12.7324055 5.33109661,12.7324055 5.52952201,12.6710403 L7.49765698,12.5960637 C7.49765698,12.230553 7.14151828,12.0712277 6.96344892,11.8369259 C6.56044986,11.2464855 6.03561387,10.7778819 5.68884724,10.1968135 L3.814433,10.3092783 L3.08341143,10.3092783 C3.19587627,10.6185567 3.51452669,10.8247423 3.70196813,11.0684161 C4.06293254,11.6237629 4.47052785,12.1473661 4.92033738,12.633552 L4.92033738,12.6710403 Z M5.00468604,15.6513589 C5.25607653,15.6922931 5.51243332,15.6922931 5.7638238,15.6513589 L7.49765698,15.529522 C7.43205249,15.257732 7.17900656,15.1171509 7.03842548,14.9203374 C6.7385192,14.5173383 6.44798499,14.1424555 6.15745081,13.7394564 C6.01686976,13.552015 5.78256797,13.4020619 5.69821931,13.158388 C5.16267531,13.1126045 4.62337432,13.1409888 4.09559514,13.2427366 C3.87066542,13.2427366 3.56138707,13.1771321 3.40206185,13.2427366 C3.29020566,13.2261893 3.17652347,13.2261893 3.06466729,13.2427366 C3.43017806,13.8238051 4.0018744,14.3017807 4.35801313,14.8453608 C4.52671043,15.0702905 4.6954077,15.4732896 4.97656983,15.5763824 L5.00468604,15.6513589 Z" id="形状"></path>
                    <path d="M27.3851921,17.5257732 L27.3851921,16.0262418 C25.6419869,16.0262418 24.2549203,16.2699156 22.5773196,16.2605436 L22.5773196,15.529522 C22.0793427,15.5052767 21.5801886,15.5303914 21.0871603,15.6044986 C20.8528585,15.660731 20.4967198,15.5388941 20.3186504,15.6044986 L20.2436738,15.6044986 C20.2828006,15.8591745 20.2828006,16.1183325 20.2436738,16.3730084 L15.4732896,16.6354264 L15.4732896,18.1630741 C16.0099088,18.1789905 16.5467769,18.1413155 17.0759138,18.0506092 C17.5538894,17.9475164 18.0693533,18.0506092 18.4910965,17.9756326 C18.9128398,17.9006561 19.606373,18.0787254 19.8969072,17.9006561 C20.0244485,17.8839669 20.1536208,17.8839669 20.2811621,17.9006561 L20.2811621,20.1593252 C20.2378109,20.5141447 20.2378109,20.8729219 20.2811621,21.2277413 C20.8809747,21.1715089 21.8275539,21.1152765 22.5398313,21.0777882 L22.5398313,18.7816308 C22.5396849,18.4529256 22.5806143,18.1254904 22.6616682,17.8069353 C24.2549203,17.8069353 25.8106842,17.638238 27.3477038,17.5445173 L27.3851921,17.5257732 Z M12.5304592,18.0131209 L9.97188378,18.1349578 C10.0845667,18.531747 10.2653233,18.9059449 10.5060918,19.2408622 C10.9372071,20.0843486 11.3776945,20.8997188 11.7619494,21.7619494 L13.3645736,21.6869728 C13.6788587,21.7242845 13.9974248,21.6987992 14.3017807,21.6119962 C14.3861293,21.3870665 13.9550141,20.8716026 13.8425492,20.6747891 C13.3833177,19.7844424 12.9896907,18.8753515 12.5117151,18.031865 L12.5304592,18.0131209 Z" id="形状"></path>
                    <path d="M26.1574508,18.0131209 L26.0074977,18.0131209 C25.8950328,18.0880975 25.6138707,18.0131209 25.4358013,18.0599812 C24.9095731,18.0335832 24.3823085,18.0840996 23.8706654,18.2099344 C24.1181395,18.5270535 24.3258695,18.8732702 24.4892221,19.2408622 C24.8359888,19.8125586 25.2296157,20.3655108 25.5576382,20.9653233 C26.1847889,20.9789113 26.8119379,20.9381466 27.4320525,20.8434864 L27.9662605,20.8434864 C27.4432238,19.8592629 26.8707979,18.9020917 26.2511715,17.9756326 L26.1574508,18.0131209 Z M19.2502343,18.3973758 C19.1096532,18.4910965 18.8378632,18.3973758 18.6410497,18.4442362 C18.1911903,18.5379569 17.3195876,18.4442362 17.0290534,18.5941893 C16.7385192,18.7441425 16.7760075,19.072165 16.6541706,19.2783505 C16.3730084,19.737582 16.1012184,20.2155576 15.8481725,20.7310216 C15.7169635,20.9653233 15.660731,21.2839738 15.4639175,21.4620431 C15.4679457,21.4994232 15.4679457,21.5371279 15.4639175,21.574508 L17.8069353,21.4620431 C18.1724461,20.7497657 18.5754452,20.0187442 18.950328,19.3158388 C19.0517716,19.0501659 19.1805482,18.7957537 19.3345829,18.556701 C19.3345829,18.4348641 19.3345829,18.4629803 19.2596064,18.3973758 L19.2502343,18.3973758 Z" id="形状"></path>
                </g>
            </g>
        </g>
    </g>
</svg>