<?xml version="1.0" encoding="UTF-8"?>
<svg width="58px" height="58px" viewBox="0 0 58 58" version="1.1" xmlns="http://www.w3.org/2000/svg" xmlns:xlink="http://www.w3.org/1999/xlink">
    <title>编组 5</title>
    <g id="页面-1" stroke="none" stroke-width="1" fill="none" fill-rule="evenodd">
        <g id="画板" transform="translate(-516.000000, -69.000000)">
            <g id="编组-5" transform="translate(517.000000, 70.000000)">
                <circle id="椭圆形备份-3" stroke="#FFFFFF" cx="28" cy="28" r="28"></circle>
                <g id="编组" transform="translate(11.000000, 14.000000)" fill="#FFFFFF" fill-rule="nonzero">
                    <path d="M25.4955255,13.2925918 C25.1175994,13.1781804 24.9350181,13.1055328 24.8452549,12.9197711 C24.8199789,12.8675034 24.7417656,12.7055112 24.8938818,12.3198432 C25.5955832,10.5432013 25.2911416,9.52077958 24.9120856,8.97588135 C24.5521539,8.45780746 23.7694355,7.83988508 22.0860302,7.83988508 C20.7757803,7.83988508 19.1135917,8.23647525 17.4050778,8.95638034 L17.3129292,8.99538235 L17.2193161,9.02367136 C17.0316293,9.08154666 16.9062956,9.09330585 16.8332296,9.09330585 C16.7496599,9.09330585 16.5973345,9.0763994 16.5146017,8.96261564 C16.4706616,8.90239688 16.411782,8.76120291 16.5011267,8.48032149 C17.0453554,6.7193306 16.9163391,5.3259713 16.1413625,4.546517 C15.6770628,4.08158963 15.01587,3.84694986 14.1742719,3.84694986 C11.7164758,3.84694986 8.14477904,5.84404519 5.07504479,8.93478696 C1.86353071,12.1707401 0.021941245,15.6599551 0.021941245,18.5085246 C0.021941245,24.169256 7.24526384,27.5520106 14.2286739,27.5520106 C23.7336558,27.5520106 29.5701055,21.9341312 29.5701055,17.9066717 C29.5701055,15.8157121 28.0467255,14.0911286 25.4955255,13.2925918 L25.4955255,13.2925918 Z M14.2683036,24.3499123 C13.8676542,24.389542 13.4648287,24.4094615 13.0714608,24.4094615 C8.92958984,24.4094615 5.7154812,22.2925982 5.42903405,19.3758589 C5.10998758,16.1274771 8.4916542,13.2206139 13.1277878,12.7586577 C13.5259339,12.7188867 13.9258003,12.6987893 14.3259278,12.6984389 C18.4669618,12.6984389 21.680652,14.8149256 21.9664714,17.731623 C22.2844299,20.9810929 18.9027633,23.8879561 14.2683036,24.3499123 Z M31.4247514,11.6427901 C31.0889363,11.6420461 30.7719378,11.4876212 30.5643533,11.2236497 C30.3567687,10.9596781 30.2814401,10.6152065 30.3598961,10.2886839 C30.4809985,9.78447944 30.5421289,9.26773669 30.5420171,8.74919263 C30.5420171,5.15221986 27.615611,2.22564642 24.0183872,2.22564642 C23.7437411,2.22564642 23.4673373,2.24280396 23.1971689,2.27661686 C22.9086973,2.30665584 22.6201079,2.22086942 22.3948871,2.03812968 C22.1696664,1.85538994 22.0262633,1.59066603 21.9962251,1.30219436 L21.9960159,1.30068785 C21.932109,0.71415456 22.3451764,0.18273984 22.929344,0.0999532718 C23.2906451,0.0551739403 23.6543635,0.0327041008 24.018429,0.0327041008 C28.8247151,0.0327041008 32.7345409,3.94294837 32.7345409,8.74919263 C32.7345409,9.44407284 32.6524777,10.1354797 32.4906947,10.803954 C32.3728051,11.2961763 31.93261,11.6432295 31.4264671,11.6429995 L31.4247514,11.6427901 L31.4247514,11.6427901 Z" id="形状"></path>
                    <path d="M27.5920508,10.2265402 C27.3042002,10.2261111 27.0312195,10.098634 26.8461082,9.87819805 C26.6609969,9.65776214 26.5826366,9.36685226 26.6319821,9.08326241 C26.6608569,8.91783866 26.6729091,8.74663993 26.6681803,8.57460425 C26.6491266,7.90718312 26.3653652,7.27475368 25.8794777,6.81679377 C25.4149217,6.3754213 24.7982435,6.12988895 24.1574469,6.1311619 C24.1315432,6.1311619 24.0482246,6.13287766 24.0482246,6.13287766 C23.5229161,6.13506224 23.0920879,5.71718919 23.0782379,5.19205882 C23.0688093,4.93157157 23.1643854,4.67820991 23.3435102,4.48885094 C23.5203829,4.30017459 23.7654641,4.19021133 24.0239948,4.1835305 C25.2082736,4.14739081 26.3580176,4.58530242 27.2181839,5.40012533 C28.082276,6.2111041 28.5858094,7.33420986 28.6164394,8.51886318 C28.6252083,8.82066179 28.6036038,9.12257725 28.5519522,9.42005229 C28.470719,9.88643673 28.0659172,10.226882 27.5925111,10.2269586 L27.5912139,10.2269586 L27.5912139,10.2265402 L27.5920508,10.2265402 L27.5920508,10.2265402 Z M16.5330565,17.4865213 C16.107717,16.6059212 15.2521836,15.9415061 14.1845664,15.6642236 C13.8081414,15.5660325 13.4206421,15.5167073 13.0316219,15.5174553 C11.2127557,15.5174553 9.49461679,16.5311395 8.75604764,18.0401657 C8.32300817,18.9254945 8.28212302,19.8781144 8.63992041,20.7229347 C9.01403839,21.6054598 9.78106394,22.2733064 10.800096,22.6052001 C11.2548247,22.7514072 11.7296947,22.8252897 12.2073487,22.8241601 C14.0660539,22.8241601 15.8437838,21.7310027 16.5313407,20.1647708 C16.9306928,19.2627447 16.9317809,18.3116314 16.5330146,17.4865213 L16.5330565,17.4865213 Z M11.1148322,20.9684549 L11.1148322,20.9665299 C10.4810496,21.0385078 9.97322834,20.6781159 9.97322834,20.1559828 C9.97322834,19.6338497 10.4270661,19.0938895 11.0574172,19.0306995 C11.7813815,18.9621112 12.2566453,19.3726367 12.2566453,19.8986198 C12.2563942,20.4173632 11.7451833,20.8964769 11.1148322,20.9684549 L11.1148322,20.9684549 Z M13.1145221,19.2916615 C12.8985464,19.4502222 12.6356594,19.4268294 12.5240517,19.2374688 C12.4051207,19.0542597 12.4520319,18.7551328 12.6643669,18.6036861 C12.9165408,18.4204771 13.175787,18.4742513 13.2874366,18.6580881 C13.3990442,18.8415063 13.319994,19.1262377 13.1145221,19.2916615 L13.1145221,19.2916615 Z" id="形状"></path>
                </g>
            </g>
        </g>
    </g>
</svg>