<?xml version="1.0" encoding="UTF-8"?>
<svg width="58px" height="58px" viewBox="0 0 58 58" version="1.1" xmlns="http://www.w3.org/2000/svg" xmlns:xlink="http://www.w3.org/1999/xlink">
    <title>编组 3</title>
    <g id="页面-1" stroke="none" stroke-width="1" fill="none" fill-rule="evenodd">
        <g id="画板" transform="translate(-348.000000, -69.000000)">
            <g id="编组-3" transform="translate(349.000000, 70.000000)">
                <circle id="椭圆形备份" stroke="#FFFFFF" cx="28" cy="28" r="28"></circle>
                <g id="编组" transform="translate(12.000000, 14.000000)" fill="#FFFFFF" fill-rule="nonzero">
                    <path d="M22.69734,8.27396542 C23.0819774,8.27396542 23.4625483,8.30220862 23.840051,8.34422974 C22.8133118,3.56348351 17.7018725,0.0114336 11.8675186,0.0114336 C5.34474097,0.0114336 0.001592175,4.457328 0.001592175,10.1028307 C0.001592175,13.3615507 1.779228,16.0375584 4.74976755,18.1131321 L3.56296564,21.6825657 L7.71106035,19.602503 C9.19535092,19.8962937 10.3862232,20.1983366 11.867484,20.1983366 C12.2398411,20.1983366 12.6090533,20.1799545 12.9751973,20.1511737 C12.7433688,19.3578681 12.6090571,18.5269574 12.6090571,17.6648467 C12.6090878,12.4809427 17.0608498,8.27396542 22.69734,8.27396542 Z M16.3172069,5.05684418 C17.2106674,5.05684418 17.8025343,5.6446176 17.8025343,6.53750595 C17.8025343,7.42682306 17.2106674,8.02277186 16.3172069,8.02277186 C15.4278514,8.02277186 14.5354661,7.42682306 14.5354661,6.53750595 C14.5354661,5.6445792 15.4278514,5.05684418 16.3172069,5.05684418 Z M8.01268849,8.0227296 C7.12344817,8.0227296 6.22588271,7.4267808 6.22588271,6.53746369 C6.22588271,5.6445792 7.12340974,5.05680191 8.01268849,5.05680191 C8.9020056,5.05680191 9.49391089,5.64457534 9.49391089,6.53746369 C9.49391089,7.42678463 8.9020056,8.0227296 8.01268849,8.0227296 Z M33.5272382,17.5222867 C33.5272382,12.7783814 28.7799845,8.91150911 23.4482328,8.91150911 C17.802492,8.91150911 13.3559141,12.7783776 13.3559141,17.5222867 C13.3559141,22.2743673 17.8025343,26.1330643 23.4482328,26.1330643 C24.629893,26.1330643 25.8217637,25.8350918 27.0085656,25.5376531 L30.2632382,27.3198547 L29.3708529,24.3545837 C31.752636,22.5677357 33.5272382,20.1982982 33.5272382,17.5222867 Z M20.1760267,16.0375584 C19.5851966,16.0375584 18.9892248,15.449785 18.9892248,14.8502688 C18.9892248,14.2590394 19.5851966,13.663632 20.1760267,13.663632 C21.0735537,13.663632 21.6613541,14.2590432 21.6613541,14.8502688 C21.6613541,15.449785 21.0735538,16.0375584 20.1760267,16.0375584 Z M26.7029093,16.0375584 C26.1161458,16.0375584 25.5242789,15.449785 25.5242789,14.8502688 C25.5242789,14.2590394 26.1161458,13.663632 26.7029093,13.663632 C27.5922264,13.663632 28.1881215,14.2590432 28.1881215,14.8502688 C28.1881598,15.449785 27.592261,16.0375584 26.7029093,16.0375584 Z" id="形状"></path>
                </g>
            </g>
        </g>
    </g>
</svg>